<svg width="1404" height="973" viewBox="0 0 1404 973" fill="none" xmlns="http://www.w3.org/2000/svg">
<g opacity="0.15">
<path d="M723.002 1285C627.888 1285 534.589 1265.53 445.703 1227.13C360.013 1190.11 282.54 1137.39 215.441 1070.43C148.257 1003.39 95.3584 925.955 58.2059 840.27C19.5821 751.205 0 657.582 0 562.002C0 383.319 80.5425 200.306 220.988 59.8938C361.395 -80.4857 544.37 -161 722.979 -161H722.998C817.721 -161 915.834 -140.623 1006.74 -102.08C1096.52 -64.0106 1179.78 -8.05151 1247.54 59.748C1312.21 124.469 1362.33 202.224 1396.49 290.856C1429.35 376.08 1446 467.307 1446 561.998C1446 657.929 1429.15 754.792 1397.28 842.108C1362.74 936.771 1312.36 1017.64 1247.54 1082.47C1182.02 1148 1100.56 1199.17 1005.42 1234.57C916.77 1267.56 819.113 1285 722.998 1285L723.002 1285ZM723.002 -158.828C544.953 -158.833 362.538 -78.5538 222.525 61.4261C82.4838 201.434 2.16692 383.888 2.17162 562.002C2.17162 750.665 78.4602 930.683 216.974 1068.9C355.233 1206.86 534.946 1282.84 723.002 1282.83C924.093 1282.83 1119.61 1207.35 1246 1080.94C1371.72 955.201 1443.83 766.059 1443.83 562.002C1443.83 366.773 1373.58 188.95 1246 61.2898C1108.28 -76.5373 912.76 -158.824 723.002 -158.828Z" fill="url(#paint0_radial_1481_3)"/>
<path d="M735.233 1213.66C653.525 1213.66 572.324 1195.76 493.845 1160.46C418.981 1126.77 350.448 1079.12 290.146 1018.83C164.723 893.413 92.8812 730.143 93.041 570.877C93.1162 495.387 111.993 417.496 149.146 339.369C184.113 265.84 234.868 194.51 295.932 133.094C357.207 71.4616 428.448 20.25 501.944 -15.0082C580.484 -52.6871 659.175 -71.8322 735.83 -71.9074H736.431C819.728 -71.9074 901.987 -54.4028 980.936 -19.8732C1057.25 13.5048 1126.42 60.9043 1186.53 121.019C1246.34 180.837 1293.48 249.567 1326.64 325.301C1361.22 404.297 1378.71 486.926 1378.62 570.881C1378.52 658.183 1365.46 744.629 1340.83 820.871C1312.18 909.531 1268.86 983.404 1212.05 1040.43C1154.23 1098.49 1079.6 1143.16 990.247 1173.2C911.778 1199.58 823.804 1213.58 735.83 1213.67H735.233V1213.66ZM736.408 -69.7451H735.834C586.228 -69.5947 426.455 4.89357 297.474 134.617C169.085 263.753 95.3678 422.76 95.2174 570.872C95.0575 729.564 166.664 892.276 291.683 1017.29C415.126 1140.72 576.775 1211.48 735.261 1211.48H735.83C928.455 1211.28 1101.47 1148.37 1210.52 1038.89C1315.76 933.217 1376.24 762.632 1376.45 570.867C1376.62 407.799 1306.84 244.392 1184.99 122.542C1062.78 0.324707 899.293 -69.7451 736.408 -69.7451Z" fill="url(#paint1_radial_1481_3)"/>
<path d="M770.5 1156.79C770.2 1156.79 769.904 1156.79 769.603 1156.79C629.905 1156.62 486.931 1092.83 377.339 981.782C268.928 871.923 206.849 730.664 207.027 594.219C207.38 322.053 496.553 32.8801 769.598 31.6439C770.322 31.6439 771.06 31.6392 771.784 31.6392C912.44 31.6392 1054.62 93.032 1162.2 200.311C1270.46 308.252 1332.41 451.828 1332.18 594.219C1332.06 670.809 1320.82 746.42 1299.69 812.89C1274.79 891.218 1236.93 956.089 1187.15 1005.7C1136.28 1056.41 1070.68 1095.43 992.198 1121.68C923.496 1144.66 846.855 1156.79 770.5 1156.79ZM771.784 33.8061C771.055 33.8061 770.341 33.8061 769.607 33.8108C497.61 35.0424 209.552 323.101 209.199 594.215C209.02 730.096 270.869 870.799 378.886 980.25C488.068 1090.89 630.478 1154.44 769.603 1154.61C769.899 1154.61 770.218 1154.61 770.515 1154.61C935.952 1154.62 1091.06 1098.41 1185.62 1004.16C1277.11 912.977 1329.73 763.554 1330.01 594.205C1330.24 452.387 1268.51 309.371 1160.67 201.834C1053.49 94.9686 911.858 33.7967 771.784 33.7967V33.8061Z" fill="url(#paint2_radial_1481_3)"/>
<path d="M815.371 1110.27C755.121 1110.27 695.298 1097.22 637.505 1071.46C581.8 1046.63 530.683 1011.31 485.582 966.473C390.36 871.815 335.82 748.404 335.956 627.893C336.022 569.622 350.288 509.888 378.359 450.357C404.922 394.031 443.484 339.891 489.883 293.794C584.799 199.493 703.716 145.527 816.438 145.527C817.068 145.527 817.693 145.527 818.323 145.532C939.924 146.18 1062.54 198.943 1154.72 290.278C1200.1 335.247 1235.89 386.844 1261.09 443.64C1287.43 502.997 1300.75 564.992 1300.68 627.893C1300.53 757.1 1250.54 878.104 1159.91 968.616C1069.38 1059.03 948.07 1109.33 818.323 1110.26C817.341 1110.26 816.349 1110.26 815.366 1110.26L815.371 1110.27ZM818.314 1108.08C1087.28 1106.18 1298.21 895.251 1298.51 627.893C1298.8 373.462 1074.41 149.076 818.318 147.703C817.698 147.703 817.063 147.698 816.443 147.698C704.28 147.698 585.932 201.43 491.415 295.335C395.563 390.572 338.26 514.889 338.128 627.898C337.992 747.835 392.296 870.682 487.109 964.936C579.469 1056.75 700.163 1108.83 818.309 1108.09L818.314 1108.08Z" fill="url(#paint3_radial_1481_3)"/>
<path d="M875.927 1069.91C822.986 1069.91 771.018 1058.91 721.451 1037.22C673.864 1016.4 630.784 986.788 593.406 949.217C517.409 872.83 473.826 770.242 473.84 667.753C473.849 567.389 518.226 465.361 595.591 387.831C673.093 310.165 775.295 265.614 875.988 265.605H876.026C981.316 265.605 1081.66 307.89 1158.61 384.682C1235.7 461.614 1278.15 562.143 1278.14 667.753C1278.12 775.526 1236.44 876.59 1160.77 952.334C1085.03 1028.13 983.897 1069.89 875.988 1069.9H875.932L875.927 1069.91ZM876.021 267.781H875.984C666.672 267.805 476.03 458.446 476.007 667.758C475.997 769.674 519.345 871.707 594.943 947.69C670.846 1023.98 773.264 1067.73 875.932 1067.73H875.984C1096.5 1067.7 1275.93 888.276 1275.96 667.758C1275.97 562.731 1233.76 462.747 1157.08 386.224C1080.54 309.846 980.724 267.781 876.021 267.781Z" fill="url(#paint4_radial_1481_3)"/>
<path d="M936.549 1031.6C854.131 1031.6 771.901 996.748 710.913 935.967C648.838 874.104 614.661 793.735 614.671 709.663C614.68 625.553 648.655 545.24 710.339 483.514C772.056 421.75 852.416 387.732 936.61 387.723H936.643C1020.79 387.723 1101.21 422.041 1163.11 484.36C1223.78 545.438 1258.56 627.555 1258.55 709.663C1258.54 791.775 1223.54 873.949 1162.53 935.116C1101.39 996.419 1019.05 1031.58 936.615 1031.6H936.559L936.549 1031.6ZM936.638 389.899H936.606C763.295 389.918 616.861 536.352 616.842 709.663C616.833 793.152 650.784 872.976 712.445 934.425C773.025 994.802 854.705 1029.43 936.549 1029.43H936.606C1106.92 1029.39 1256.34 879.97 1256.37 709.663C1256.38 628.128 1221.83 546.566 1161.56 485.892C1100.07 423.992 1020.19 389.899 936.634 389.899H936.638Z" fill="url(#paint5_radial_1481_3)"/>
<path d="M991.502 991.216C932.013 991.216 872.016 965.58 826.488 920.615C779.403 874.113 752.427 811.733 752.469 749.476C752.512 685.77 779.149 622.939 825.543 577.105C871.532 531.67 931.374 507.049 994.21 507.754C1055.22 508.45 1116.78 535.421 1163.11 581.749C1209.43 628.077 1235.97 689.216 1235.92 749.48C1235.87 808.814 1208.71 869.751 1161.39 916.671C1114.41 963.262 1053.47 990.426 994.21 991.202C993.312 991.211 992.405 991.221 991.502 991.221V991.216ZM991.549 509.907C930.316 509.907 871.998 534.255 827.066 578.647C781.081 624.077 754.683 686.344 754.636 749.476C754.594 811.16 781.34 872.971 828.011 919.068C873.13 963.634 932.577 989.044 991.498 989.044C992.391 989.044 993.279 989.04 994.177 989.026C1117.22 987.413 1233.65 870.997 1233.75 749.471C1233.85 623.315 1121.9 511.374 994.182 509.921C993.303 509.912 992.424 509.907 991.549 509.907Z" fill="url(#paint6_radial_1481_3)"/>
<path d="M1042.44 944.55C1002.21 944.55 961.264 926.688 930.062 895.514C898.974 864.454 881.178 823.456 881.234 783.037C881.295 740.634 898.245 700.314 928.967 669.507C959.76 638.625 1000.17 621.585 1042.74 621.529H1042.91C1082.67 621.529 1123.34 639.414 1154.51 670.611C1186.21 702.335 1204.34 743.313 1204.25 783.042C1204.17 821.266 1185.89 861.577 1154.07 893.639C1122.06 925.908 1081.48 944.46 1042.75 944.55H1042.44ZM1042.74 942.378C1122.99 942.195 1201.91 863.269 1202.08 783.037C1202.17 743.882 1184.27 703.463 1152.98 672.144C1122.21 641.351 1082.1 623.696 1042.91 623.696H1042.74C956.493 623.804 883.523 696.774 883.401 783.037C883.345 822.883 900.91 863.321 931.59 893.977C962.388 924.747 1002.77 942.378 1042.43 942.378H1042.74Z" fill="url(#paint7_radial_1481_3)"/>
<path d="M1076.04 887.514C1055.73 887.514 1035.17 878.626 1019.58 863.1C1003.95 847.523 994.981 826.794 994.971 806.215C994.962 784.771 1003.51 764.414 1019.05 748.893C1034.52 733.433 1054.81 724.92 1076.19 724.92H1076.27C1096.6 724.939 1117.23 733.95 1132.86 749.645C1148.62 765.457 1157.62 786.078 1157.57 806.224C1157.46 847.114 1117.19 887.383 1076.28 887.519H1076.04V887.514ZM1076.19 727.087C1055.39 727.087 1035.64 735.374 1020.58 750.425C1005.46 765.537 997.138 785.35 997.148 806.21C997.157 826.215 1005.89 846.385 1021.12 861.558C1036.3 876.68 1056.3 885.338 1076.04 885.338H1076.28C1116.1 885.202 1155.3 846.009 1155.41 806.206C1155.46 786.638 1146.69 766.576 1131.34 751.168C1116.11 735.882 1096.04 727.102 1076.28 727.083H1076.2L1076.19 727.087Z" fill="url(#paint8_radial_1481_3)"/>
<path d="M724.083 1283.99L721.916 1283.83C730.777 1165.02 819.493 1106.04 905.291 1049C990.905 992.09 1079.43 933.236 1087.69 814.784L1089.86 814.934C1081.52 934.453 992.541 993.604 906.49 1050.81C821.125 1107.56 732.859 1166.24 724.079 1283.99H724.083Z" fill="url(#paint9_radial_1481_3)"/>
<path d="M884.078 1266.94C877.083 1164.85 919.778 1102.36 986.04 1039.95C1055.64 974.388 1103.66 919.877 1087.71 815.028L1089.86 814.704C1105.97 920.601 1057.61 975.512 987.53 1041.53C921.719 1103.52 879.312 1165.56 886.249 1266.8L884.083 1266.95L884.078 1266.94Z" fill="url(#paint10_radial_1481_3)"/>
<path d="M1042.23 1217.6C1018.47 1134.33 1024.44 1075.32 1062.82 1013.92C1106.75 943.666 1120.78 898.306 1087.77 815.263L1089.79 814.46C1123.15 898.377 1109 944.169 1064.67 1015.07C1026.64 1075.88 1020.75 1134.38 1044.32 1216.99L1042.23 1217.59V1217.6Z" fill="url(#paint11_radial_1481_3)"/>
<path d="M1184.57 1135.55C1154.26 1086.57 1122.9 1035.93 1131.86 971.864C1141.36 903.886 1129.22 873.197 1087.9 815.494L1089.67 814.229C1131.36 872.459 1143.61 903.449 1134.01 972.165C1125.16 1035.45 1156.31 1085.76 1186.43 1134.41L1184.58 1135.55H1184.57Z" fill="url(#paint12_radial_1481_3)"/>
<path d="M1299.11 1021.5C1261.95 989.961 1228.88 955.055 1196.9 921.301C1162.97 885.493 1127.89 848.467 1088.09 815.701L1089.47 814.023C1129.37 846.874 1164.5 883.951 1198.47 919.807C1230.41 953.518 1263.44 988.377 1300.51 1019.84L1299.11 1021.5V1021.5Z" fill="url(#paint13_radial_1481_3)"/>
<path d="M1380.07 881.108C1375.21 879.133 1370.36 877.122 1365.5 875.115C1323.21 857.601 1279.5 839.485 1232.61 847.043C1178.3 855.786 1144.82 840.928 1094.15 818.436L1088.35 815.86L1089.22 813.877L1095.03 816.453C1145.35 838.789 1178.59 853.544 1232.27 844.9C1279.76 837.252 1323.77 855.481 1366.34 873.112C1371.18 875.119 1376.03 877.131 1380.89 879.1L1380.07 881.112L1380.07 881.108Z" fill="url(#paint14_radial_1481_3)"/>
<path d="M1148.61 822.103C1130.81 822.103 1111.17 819.738 1088.6 815.935L1088.96 813.792C1165.82 826.751 1206.24 823.311 1257.58 768.404C1304.78 717.921 1352.16 713.381 1428.47 722.612L1428.21 724.77C1352.63 715.618 1305.73 720.084 1259.17 769.885C1222.79 808.786 1190.87 822.098 1148.61 822.098L1148.61 822.103Z" fill="url(#paint15_radial_1481_3)"/>
<path d="M1088.85 815.945L1088.71 813.778C1178.52 807.992 1224.98 775.14 1266.28 688.247C1308.58 599.249 1353.64 567.116 1444.84 560.916L1444.99 563.083C1354.73 569.222 1310.13 601.04 1268.24 689.183C1226.54 776.926 1179.6 810.098 1088.85 815.945Z" fill="url(#paint16_radial_1481_3)"/>
<path d="M1089.1 815.898L1088.46 813.825C1190.79 782.111 1223.01 708.582 1257.36 608.166C1290.02 512.666 1331.52 440.961 1427.92 401.406L1428.74 403.413C1333.1 442.657 1291.88 513.926 1259.41 608.866C1224.86 709.893 1192.41 783.878 1089.1 815.898Z" fill="url(#paint17_radial_1481_3)"/>
<path d="M1089.33 815.799L1088.23 813.924C1183.53 758.364 1203.84 662.202 1225.33 560.399C1227.3 551.088 1229.27 541.762 1231.3 532.46C1253.05 432.937 1286.08 330.171 1379.78 252.81L1381.16 254.484C1287.97 331.426 1255.08 433.778 1233.42 532.92C1231.39 542.218 1229.42 551.539 1227.46 560.846C1206.81 658.634 1185.46 759.751 1089.33 815.799Z" fill="url(#paint18_radial_1481_3)"/>
<path d="M1089.53 815.654L1088.04 814.07C1169.28 738.021 1177.17 626.018 1184.8 517.705C1186.05 500.135 1187.32 481.967 1188.91 464.59C1198.85 355.647 1219.7 229.491 1298.92 119.825L1300.68 121.098C1221.76 230.337 1200.98 356.136 1191.07 464.787C1189.48 482.141 1188.2 500.299 1186.96 517.86C1179.3 626.591 1171.38 739.027 1089.52 815.658L1089.53 815.654Z" fill="url(#paint19_radial_1481_3)"/>
<path d="M1089.68 815.475L1087.89 814.253C1153.83 717.677 1144.4 588.315 1136.08 474.183C1134.4 451.034 1132.8 429.162 1131.77 407.597C1125.53 276.444 1127.59 136.981 1184.5 5.71616L1186.5 6.58102C1129.76 137.437 1127.71 276.604 1133.95 407.493C1134.97 429.035 1136.56 450.888 1138.25 474.024C1146.59 588.508 1156.06 718.269 1089.68 815.47V815.475Z" fill="url(#paint20_radial_1481_3)"/>
<path d="M1089.77 815.315L1087.8 814.413C1138.03 704.323 1106.65 564.08 1078.96 440.345C1072.99 413.66 1067.35 388.452 1062.69 364.291C1031.87 204.504 1009.04 60.4954 1042.22 -83.7901L1044.34 -83.306C1011.25 60.5706 1034.04 204.339 1064.82 363.878C1069.47 388.01 1075.11 413.2 1081.08 439.87C1108.84 563.939 1140.3 704.558 1089.77 815.31V815.315Z" fill="url(#paint21_radial_1481_3)"/>
<path d="M1089.84 815.113L1087.73 814.615C1106.4 735.727 1081.96 645.619 1064.11 579.826C1044.85 508.84 1020.47 438.084 996.894 369.654C993.176 358.862 989.458 348.07 985.754 337.273C980.193 321.047 974.303 304.238 968.611 287.974C921.794 154.251 868.726 2.68436 884.083 -140.877L886.24 -140.647C870.94 2.42583 923.919 153.748 970.66 287.255C976.357 303.519 982.242 320.337 987.808 336.568C991.507 347.36 995.225 358.152 998.943 368.945C1022.53 437.407 1046.93 508.201 1066.21 579.258C1084.12 645.276 1108.64 735.689 1089.84 815.118V815.113Z" fill="url(#paint22_radial_1481_3)"/>
<path d="M1089.87 814.869L1087.7 814.854C1088.19 731.586 1051.96 645.544 1022.85 576.409C989.669 497.615 950.9 419.752 913.404 344.451L905.333 328.239C892.609 302.663 879.03 276.75 864.66 249.318C798.426 122.913 723.364 -20.3573 721.916 -159.905L724.088 -159.928C725.531 -20.9026 800.466 122.123 866.578 248.307C880.957 275.749 894.536 301.672 907.275 327.27L915.345 343.482C952.855 418.812 991.643 496.708 1024.85 575.568C1054.04 644.885 1090.37 731.153 1089.87 814.869Z" fill="url(#paint23_radial_1481_3)"/>
<path d="M1087.73 815.108C1068.53 733.255 1023.89 657.821 980.71 584.87L977.88 580.09C935.769 508.915 890.179 438.23 846.089 369.871C839.132 359.083 832.175 348.296 825.228 337.503C811.009 315.416 796.146 292.741 781.777 270.813C696.534 140.775 608.396 6.30373 562.843 -140.445L564.916 -141.089C610.374 5.36832 698.433 139.708 783.591 269.624C797.965 291.556 812.833 314.231 827.052 336.328C833.999 347.12 840.956 357.903 847.913 368.691C892.012 437.064 937.616 507.768 979.747 578.98L982.576 583.761C1025.83 656.853 1070.56 732.432 1089.84 814.61L1087.72 815.108H1087.73Z" fill="url(#paint24_radial_1481_3)"/>
<path d="M1087.81 815.339C1025.57 687.74 927.604 573.58 832.866 463.184C805.119 430.85 776.428 397.415 749.682 364.771C740.305 353.325 730.899 341.87 721.484 330.406C614.06 199.601 502.983 64.3404 415.888 -82.9958L417.759 -84.1004C504.769 63.0947 615.794 198.285 723.167 329.028C732.582 340.493 741.987 351.948 751.365 363.393C778.096 396.019 806.779 429.444 834.516 461.77C929.343 572.273 1027.4 686.536 1089.76 814.389L1087.81 815.343V815.339Z" fill="url(#paint25_radial_1481_3)"/>
<path d="M1087.93 815.541C997.867 703.322 889.22 602.187 784.146 504.379C750.397 472.966 715.5 440.481 681.977 408.316L678.682 405.152C546.03 277.873 408.861 146.26 284.472 6.87248L286.094 5.42473C410.421 144.747 547.562 276.331 680.186 403.582L683.481 406.746C716.99 438.897 751.882 471.377 785.627 502.786C890.757 600.645 999.465 701.836 1089.63 814.177L1087.94 815.536L1087.93 815.541Z" fill="url(#paint26_radial_1481_3)"/>
<path d="M1088.11 815.71C921.621 683.147 747.722 554.19 579.549 429.482C444.655 329.451 305.164 226.013 170.312 121.315L171.642 119.599C306.475 224.283 445.952 327.712 580.841 427.738C749.029 552.46 922.946 681.422 1089.46 814.008L1088.11 815.705V815.71Z" fill="url(#paint27_radial_1481_3)"/>
<path d="M1088.31 815.841C899.289 724.441 714.786 616.227 536.356 511.576C387.925 424.518 234.44 334.5 79.1324 254.615L80.1242 252.683C235.484 332.601 388.997 422.633 537.456 509.705C715.848 614.333 900.318 722.523 1089.26 813.886L1088.31 815.841H1088.31Z" fill="url(#paint28_radial_1481_3)"/>
<path d="M1088.54 815.922C945.005 782.652 805.035 720.399 669.671 660.195C631.705 643.311 592.447 625.849 554.129 609.505C526.1 597.552 497.535 585.194 469.91 573.241C324.6 510.372 174.345 445.365 20.4235 403.46L20.9923 401.364C175.064 443.311 325.394 508.351 470.77 571.248C498.395 583.197 526.955 595.559 554.979 607.507C593.312 623.856 632.579 641.318 670.55 658.207C805.82 718.368 945.692 780.579 1089.02 813.802L1088.53 815.917L1088.54 815.922Z" fill="url(#paint29_radial_1481_3)"/>
<path d="M1088.78 815.95C942.091 815.306 792.884 767.873 648.594 722.001C612.809 710.626 579.008 699.881 545.038 689.756C510.203 679.373 475.462 668.27 438.68 656.515C294.997 610.586 146.42 563.097 1.09051 563.088V560.916C146.758 560.926 295.5 608.466 439.343 654.446C476.115 666.197 510.842 677.3 545.663 687.679C579.652 697.808 613.463 708.558 649.257 719.938C793.392 765.758 942.439 813.139 1088.8 813.783L1088.79 815.954L1088.78 815.95Z" fill="url(#paint30_radial_1481_3)"/>
<path d="M989.246 825.872C936.488 825.872 882.987 819.207 830.563 812.678L826.257 812.142C747.642 802.361 668.185 789.143 591.347 776.358C579.027 774.308 566.707 772.259 554.387 770.224C529.808 766.162 504.402 761.734 479.833 757.457C327.839 730.979 170.669 703.599 20.8607 724.77L20.5551 722.622C170.697 701.404 328.041 728.812 480.204 755.318C504.769 759.596 530.166 764.024 554.74 768.085C567.06 770.12 579.384 772.169 591.704 774.219C668.524 786.999 747.957 800.212 826.525 809.989L830.831 810.525C916.586 821.205 1005.26 832.251 1088.55 813.802L1089.02 815.922C1056.4 823.146 1022.97 825.872 989.251 825.872H989.246Z" fill="url(#paint31_radial_1481_3)"/>
<path d="M79.9361 881.141L79.3157 879.058C232.335 833.318 397.739 838.761 557.701 844.03L581.965 844.825C600.198 845.408 618.436 846.052 636.669 846.7C703.068 849.046 771.713 851.471 839.264 850.808L842.427 850.775C922.697 849.986 1013.68 849.093 1088.32 813.882L1089.24 815.846C1014.17 851.26 922.941 852.157 842.451 852.947L839.287 852.98C771.708 853.647 703.021 851.222 636.594 848.872C618.356 848.228 600.123 847.584 581.894 846.996L557.63 846.207C397.847 840.947 232.621 835.508 79.9408 881.145L79.9361 881.141Z" fill="url(#paint32_radial_1481_3)"/>
<path d="M171.44 1021.65L170.509 1019.69C317.46 949.885 475.838 929.062 625.463 913.715C646.07 911.599 667.039 909.578 687.316 907.623C742.415 902.307 799.39 896.812 855.104 888.92L856.34 888.746C935.665 877.507 1025.58 864.773 1088.1 814.023L1089.47 815.71C1026.48 866.837 936.253 879.618 856.646 890.899L855.414 891.073C799.653 898.974 742.655 904.469 687.532 909.79C667.259 911.745 646.291 913.766 625.693 915.882C476.256 931.21 318.085 952.005 171.45 1021.66L171.44 1021.65Z" fill="url(#paint33_radial_1481_3)"/>
<path d="M285.934 1135.85L284.632 1134.11C396.386 1050.24 524.506 1008.21 682.498 970.901C705.921 965.368 730.006 960.362 755.506 955.065C873.163 930.608 1006.52 902.89 1087.98 814.126L1089.58 815.592C1007.64 904.873 873.925 932.667 755.948 957.189C730.467 962.487 706.396 967.488 682.997 973.016C525.268 1010.26 397.387 1052.2 285.934 1135.85Z" fill="url(#paint34_radial_1481_3)"/>
<path d="M417.66 1217.99L415.991 1216.6C504.825 1109.53 629.778 1057.55 750.147 1013.48C766.618 1007.45 783.258 1001.69 800.87 995.588C907.754 958.557 1028.9 916.591 1087.85 814.323L1089.73 815.409C1030.38 918.378 908.826 960.489 801.585 997.641C783.981 1003.74 767.351 1009.5 750.899 1015.53C630.807 1059.49 506.16 1111.34 417.669 1217.99L417.66 1217.99Z" fill="url(#paint35_radial_1481_3)"/>
<path d="M564.879 1267.29L562.881 1266.44C611.286 1153.36 710.532 1096.88 825.665 1039.77C833.087 1036.09 840.57 1032.42 848.077 1028.73C948.686 979.375 1052.72 928.333 1087.74 814.539L1089.82 815.179C1054.52 929.87 950.058 981.119 849.036 1030.68C841.529 1034.36 834.051 1038.03 826.633 1041.71C711.89 1098.64 612.993 1154.9 564.879 1267.29Z" fill="url(#paint36_radial_1481_3)"/>
</g>
<defs>
<radialGradient id="paint0_radial_1481_3" cx="0" cy="0" r="1" gradientUnits="userSpaceOnUse" gradientTransform="translate(1044.49 788.903) scale(543.214)">
<stop offset="0.04"/>
<stop offset="0.17" stop-color="#070707"/>
<stop offset="0.37" stop-color="#1B1B1B"/>
<stop offset="0.61" stop-color="#3C3C3C"/>
<stop offset="0.88" stop-color="#696969"/>
<stop offset="1" stop-color="#808080"/>
</radialGradient>
<radialGradient id="paint1_radial_1481_3" cx="0" cy="0" r="1" gradientUnits="userSpaceOnUse" gradientTransform="translate(1070.17 807.231) scale(611.005 611.007)">
<stop offset="0.04"/>
<stop offset="0.17" stop-color="#070707"/>
<stop offset="0.37" stop-color="#1B1B1B"/>
<stop offset="0.61" stop-color="#3C3C3C"/>
<stop offset="0.88" stop-color="#696969"/>
<stop offset="1" stop-color="#808080"/>
</radialGradient>
<radialGradient id="paint2_radial_1481_3" cx="0" cy="0" r="1" gradientUnits="userSpaceOnUse" gradientTransform="translate(1076.27 812.202) scale(698.123 698.121)">
<stop offset="0.04"/>
<stop offset="0.17" stop-color="#070707"/>
<stop offset="0.37" stop-color="#1B1B1B"/>
<stop offset="0.61" stop-color="#3C3C3C"/>
<stop offset="0.88" stop-color="#696969"/>
<stop offset="1" stop-color="#808080"/>
</radialGradient>
<radialGradient id="paint3_radial_1481_3" cx="0" cy="0" r="1" gradientUnits="userSpaceOnUse" gradientTransform="translate(1062 803.322) scale(814.213 814.194)">
<stop offset="0.04"/>
<stop offset="0.17" stop-color="#070707"/>
<stop offset="0.37" stop-color="#1B1B1B"/>
<stop offset="0.61" stop-color="#3C3C3C"/>
<stop offset="0.88" stop-color="#696969"/>
<stop offset="1" stop-color="#808080"/>
</radialGradient>
<radialGradient id="paint4_radial_1481_3" cx="0" cy="0" r="1" gradientUnits="userSpaceOnUse" gradientTransform="translate(1025.93 779.803) scale(976.614 976.608)">
<stop offset="0.04"/>
<stop offset="0.17" stop-color="#070707"/>
<stop offset="0.37" stop-color="#1B1B1B"/>
<stop offset="0.61" stop-color="#3C3C3C"/>
<stop offset="0.88" stop-color="#696969"/>
<stop offset="1" stop-color="#808080"/>
</radialGradient>
<radialGradient id="paint5_radial_1481_3" cx="0" cy="0" r="1" gradientUnits="userSpaceOnUse" gradientTransform="translate(965.263 739.955) scale(1219.94)">
<stop offset="0.04"/>
<stop offset="0.17" stop-color="#070707"/>
<stop offset="0.37" stop-color="#1B1B1B"/>
<stop offset="0.61" stop-color="#3C3C3C"/>
<stop offset="0.88" stop-color="#696969"/>
<stop offset="1" stop-color="#808080"/>
</radialGradient>
<radialGradient id="paint6_radial_1481_3" cx="0" cy="0" r="1" gradientUnits="userSpaceOnUse" gradientTransform="translate(873.418 679.907) scale(1624.75 1624.65)">
<stop offset="0.04"/>
<stop offset="0.17" stop-color="#070707"/>
<stop offset="0.37" stop-color="#1B1B1B"/>
<stop offset="0.61" stop-color="#3C3C3C"/>
<stop offset="0.88" stop-color="#696969"/>
<stop offset="1" stop-color="#808080"/>
</radialGradient>
<radialGradient id="paint7_radial_1481_3" cx="0" cy="0" r="1" gradientUnits="userSpaceOnUse" gradientTransform="translate(730.796 588.249) scale(2431.69 2431.69)">
<stop offset="0.04"/>
<stop offset="0.17" stop-color="#070707"/>
<stop offset="0.37" stop-color="#1B1B1B"/>
<stop offset="0.61" stop-color="#3C3C3C"/>
<stop offset="0.88" stop-color="#696969"/>
<stop offset="1" stop-color="#808080"/>
</radialGradient>
<radialGradient id="paint8_radial_1481_3" cx="0" cy="0" r="1" gradientUnits="userSpaceOnUse" gradientTransform="translate(440.337 408.003) scale(4830.88 4830.88)">
<stop offset="0.04"/>
<stop offset="0.17" stop-color="#070707"/>
<stop offset="0.37" stop-color="#1B1B1B"/>
<stop offset="0.61" stop-color="#3C3C3C"/>
<stop offset="0.88" stop-color="#696969"/>
<stop offset="1" stop-color="#808080"/>
</radialGradient>
<radialGradient id="paint9_radial_1481_3" cx="0" cy="0" r="1" gradientUnits="userSpaceOnUse" gradientTransform="translate(1267.68 -240.759) scale(2134.83 1674.08)">
<stop offset="0.04"/>
<stop offset="0.17" stop-color="#070707"/>
<stop offset="0.37" stop-color="#1B1B1B"/>
<stop offset="0.61" stop-color="#3C3C3C"/>
<stop offset="0.88" stop-color="#696969"/>
<stop offset="1" stop-color="#808080"/>
</radialGradient>
<radialGradient id="paint10_radial_1481_3" cx="0" cy="0" r="1" gradientUnits="userSpaceOnUse" gradientTransform="translate(1111.59 -243.495) scale(3746.86 1736.86)">
<stop offset="0.04"/>
<stop offset="0.17" stop-color="#070707"/>
<stop offset="0.37" stop-color="#1B1B1B"/>
<stop offset="0.61" stop-color="#3C3C3C"/>
<stop offset="0.88" stop-color="#696969"/>
<stop offset="1" stop-color="#808080"/>
</radialGradient>
<radialGradient id="paint11_radial_1481_3" cx="0" cy="0" r="1" gradientUnits="userSpaceOnUse" gradientTransform="translate(295.018 -252.668) scale(9814.45 1948.45)">
<stop offset="0.04"/>
<stop offset="0.17" stop-color="#070707"/>
<stop offset="0.37" stop-color="#1B1B1B"/>
<stop offset="0.61" stop-color="#3C3C3C"/>
<stop offset="0.88" stop-color="#696969"/>
<stop offset="1" stop-color="#808080"/>
</radialGradient>
<radialGradient id="paint12_radial_1481_3" cx="0" cy="0" r="1" gradientUnits="userSpaceOnUse" gradientTransform="translate(-637.148 -274.971) scale(7972.42 2444.56)">
<stop offset="0.04"/>
<stop offset="0.17" stop-color="#070707"/>
<stop offset="0.37" stop-color="#1B1B1B"/>
<stop offset="0.61" stop-color="#3C3C3C"/>
<stop offset="0.88" stop-color="#696969"/>
<stop offset="1" stop-color="#808080"/>
</radialGradient>
<radialGradient id="paint13_radial_1481_3" cx="0" cy="0" r="1" gradientUnits="userSpaceOnUse" gradientTransform="translate(-296.841 -336.066) scale(3697.86 3785.91)">
<stop offset="0.04"/>
<stop offset="0.17" stop-color="#070707"/>
<stop offset="0.37" stop-color="#1B1B1B"/>
<stop offset="0.61" stop-color="#3C3C3C"/>
<stop offset="0.88" stop-color="#696969"/>
<stop offset="1" stop-color="#808080"/>
</radialGradient>
<radialGradient id="paint14_radial_1481_3" cx="0" cy="0" r="1" gradientUnits="userSpaceOnUse" gradientTransform="translate(-216.794 -698.095) scale(2685.03 11682.6)">
<stop offset="0.04"/>
<stop offset="0.17" stop-color="#070707"/>
<stop offset="0.37" stop-color="#1B1B1B"/>
<stop offset="0.61" stop-color="#3C3C3C"/>
<stop offset="0.88" stop-color="#696969"/>
<stop offset="1" stop-color="#808080"/>
</radialGradient>
<radialGradient id="paint15_radial_1481_3" cx="0" cy="0" r="1" gradientUnits="userSpaceOnUse" gradientTransform="translate(-187.687 820.42) scale(2311.16 7601.54)">
<stop offset="0.04"/>
<stop offset="0.17" stop-color="#070707"/>
<stop offset="0.37" stop-color="#1B1B1B"/>
<stop offset="0.61" stop-color="#3C3C3C"/>
<stop offset="0.88" stop-color="#696969"/>
<stop offset="1" stop-color="#808080"/>
</radialGradient>
<radialGradient id="paint16_radial_1481_3" cx="0" cy="0" r="1" gradientUnits="userSpaceOnUse" gradientTransform="translate(-179.5 1131.67) scale(2204.73 3080.03)">
<stop offset="0.04"/>
<stop offset="0.17" stop-color="#070707"/>
<stop offset="0.37" stop-color="#1B1B1B"/>
<stop offset="0.61" stop-color="#3C3C3C"/>
<stop offset="0.88" stop-color="#696969"/>
<stop offset="1" stop-color="#808080"/>
</radialGradient>
<radialGradient id="paint17_radial_1481_3" cx="0" cy="0" r="1" gradientUnits="userSpaceOnUse" gradientTransform="translate(-186.857 1190.83) scale(2308.32 1895.06)">
<stop offset="0.04"/>
<stop offset="0.17" stop-color="#070707"/>
<stop offset="0.37" stop-color="#1B1B1B"/>
<stop offset="0.61" stop-color="#3C3C3C"/>
<stop offset="0.88" stop-color="#696969"/>
<stop offset="1" stop-color="#808080"/>
</radialGradient>
<radialGradient id="paint18_radial_1481_3" cx="0" cy="0" r="1" gradientUnits="userSpaceOnUse" gradientTransform="translate(-215.952 1215.92) scale(2681.52 1395.22)">
<stop offset="0.04"/>
<stop offset="0.17" stop-color="#070707"/>
<stop offset="0.37" stop-color="#1B1B1B"/>
<stop offset="0.61" stop-color="#3C3C3C"/>
<stop offset="0.88" stop-color="#696969"/>
<stop offset="1" stop-color="#808080"/>
</radialGradient>
<radialGradient id="paint19_radial_1481_3" cx="0" cy="0" r="1" gradientUnits="userSpaceOnUse" gradientTransform="translate(-296.181 1229.4) scale(3694.02 1128.85)">
<stop offset="0.04"/>
<stop offset="0.17" stop-color="#070707"/>
<stop offset="0.37" stop-color="#1B1B1B"/>
<stop offset="0.61" stop-color="#3C3C3C"/>
<stop offset="0.88" stop-color="#696969"/>
<stop offset="1" stop-color="#808080"/>
</radialGradient>
<radialGradient id="paint20_radial_1481_3" cx="0" cy="0" r="1" gradientUnits="userSpaceOnUse" gradientTransform="translate(-636.394 1237.55) scale(7965.58 970.035)">
<stop offset="0.04"/>
<stop offset="0.17" stop-color="#070707"/>
<stop offset="0.37" stop-color="#1B1B1B"/>
<stop offset="0.61" stop-color="#3C3C3C"/>
<stop offset="0.88" stop-color="#696969"/>
<stop offset="1" stop-color="#808080"/>
</radialGradient>
<radialGradient id="paint21_radial_1481_3" cx="0" cy="0" r="1" gradientUnits="userSpaceOnUse" gradientTransform="translate(296.348 1242.52) scale(8664.37 873.633)">
<stop offset="0.04"/>
<stop offset="0.17" stop-color="#070707"/>
<stop offset="0.37" stop-color="#1B1B1B"/>
<stop offset="0.61" stop-color="#3C3C3C"/>
<stop offset="0.88" stop-color="#696969"/>
<stop offset="1" stop-color="#808080"/>
</radialGradient>
<radialGradient id="paint22_radial_1481_3" cx="0" cy="0" r="1" gradientUnits="userSpaceOnUse" gradientTransform="translate(1095.88 1245.35) scale(3649.78 821.644)">
<stop offset="0.04"/>
<stop offset="0.17" stop-color="#070707"/>
<stop offset="0.37" stop-color="#1B1B1B"/>
<stop offset="0.61" stop-color="#3C3C3C"/>
<stop offset="0.88" stop-color="#696969"/>
<stop offset="1" stop-color="#808080"/>
</radialGradient>
<radialGradient id="paint23_radial_1481_3" cx="0" cy="0" r="1" gradientUnits="userSpaceOnUse" gradientTransform="translate(1267.63 1246.48) scale(2134.72 805.796)">
<stop offset="0.04"/>
<stop offset="0.17" stop-color="#070707"/>
<stop offset="0.37" stop-color="#1B1B1B"/>
<stop offset="0.61" stop-color="#3C3C3C"/>
<stop offset="0.88" stop-color="#696969"/>
<stop offset="1" stop-color="#808080"/>
</radialGradient>
<radialGradient id="paint24_radial_1481_3" cx="0" cy="0" r="1" gradientUnits="userSpaceOnUse" gradientTransform="translate(1321.57 1245.37) scale(1490.52 821.478)">
<stop offset="0.04"/>
<stop offset="0.17" stop-color="#070707"/>
<stop offset="0.37" stop-color="#1B1B1B"/>
<stop offset="0.61" stop-color="#3C3C3C"/>
<stop offset="0.88" stop-color="#696969"/>
<stop offset="1" stop-color="#808080"/>
</radialGradient>
<radialGradient id="paint25_radial_1481_3" cx="0" cy="0" r="1" gradientUnits="userSpaceOnUse" gradientTransform="translate(1348.86 1242.49) scale(1165.65 873.311)">
<stop offset="0.04"/>
<stop offset="0.17" stop-color="#070707"/>
<stop offset="0.37" stop-color="#1B1B1B"/>
<stop offset="0.61" stop-color="#3C3C3C"/>
<stop offset="0.88" stop-color="#696969"/>
<stop offset="1" stop-color="#808080"/>
</radialGradient>
<radialGradient id="paint26_radial_1481_3" cx="0" cy="0" r="1" gradientUnits="userSpaceOnUse" gradientTransform="translate(1364.93 1237.45) scale(975.579 969.607)">
<stop offset="0.04"/>
<stop offset="0.17" stop-color="#070707"/>
<stop offset="0.37" stop-color="#1B1B1B"/>
<stop offset="0.61" stop-color="#3C3C3C"/>
<stop offset="0.88" stop-color="#696969"/>
<stop offset="1" stop-color="#808080"/>
</radialGradient>
<radialGradient id="paint27_radial_1481_3" cx="0" cy="0" r="1" gradientUnits="userSpaceOnUse" gradientTransform="translate(1375.25 1229.32) scale(854.582 1128.39)">
<stop offset="0.04"/>
<stop offset="0.17" stop-color="#070707"/>
<stop offset="0.37" stop-color="#1B1B1B"/>
<stop offset="0.61" stop-color="#3C3C3C"/>
<stop offset="0.88" stop-color="#696969"/>
<stop offset="1" stop-color="#808080"/>
</radialGradient>
<radialGradient id="paint28_radial_1481_3" cx="0" cy="0" r="1" gradientUnits="userSpaceOnUse" gradientTransform="translate(1381.91 1215.83) scale(777.614 1394.79)">
<stop offset="0.04"/>
<stop offset="0.17" stop-color="#070707"/>
<stop offset="0.37" stop-color="#1B1B1B"/>
<stop offset="0.61" stop-color="#3C3C3C"/>
<stop offset="0.88" stop-color="#696969"/>
<stop offset="1" stop-color="#808080"/>
</radialGradient>
<radialGradient id="paint29_radial_1481_3" cx="0" cy="0" r="1" gradientUnits="userSpaceOnUse" gradientTransform="translate(1385.73 1190.76) scale(735.056 1894.74)">
<stop offset="0.04"/>
<stop offset="0.17" stop-color="#070707"/>
<stop offset="0.37" stop-color="#1B1B1B"/>
<stop offset="0.61" stop-color="#3C3C3C"/>
<stop offset="0.88" stop-color="#696969"/>
<stop offset="1" stop-color="#808080"/>
</radialGradient>
<radialGradient id="paint30_radial_1481_3" cx="0" cy="0" r="1" gradientUnits="userSpaceOnUse" gradientTransform="translate(1387.09 1131.63) scale(722.15 3079.89)">
<stop offset="0.04"/>
<stop offset="0.17" stop-color="#070707"/>
<stop offset="0.37" stop-color="#1B1B1B"/>
<stop offset="0.61" stop-color="#3C3C3C"/>
<stop offset="0.88" stop-color="#696969"/>
<stop offset="1" stop-color="#808080"/>
</radialGradient>
<radialGradient id="paint31_radial_1481_3" cx="0" cy="0" r="1" gradientUnits="userSpaceOnUse" gradientTransform="translate(1385.73 802.621) scale(735.163 7088)">
<stop offset="0.04"/>
<stop offset="0.17" stop-color="#070707"/>
<stop offset="0.37" stop-color="#1B1B1B"/>
<stop offset="0.61" stop-color="#3C3C3C"/>
<stop offset="0.88" stop-color="#696969"/>
<stop offset="1" stop-color="#808080"/>
</radialGradient>
<radialGradient id="paint32_radial_1481_3" cx="0" cy="0" r="1" gradientUnits="userSpaceOnUse" gradientTransform="translate(1381.92 -697.97) scale(777.766 11677.7)">
<stop offset="0.04"/>
<stop offset="0.17" stop-color="#070707"/>
<stop offset="0.37" stop-color="#1B1B1B"/>
<stop offset="0.61" stop-color="#3C3C3C"/>
<stop offset="0.88" stop-color="#696969"/>
<stop offset="1" stop-color="#808080"/>
</radialGradient>
<radialGradient id="paint33_radial_1481_3" cx="0" cy="0" r="1" gradientUnits="userSpaceOnUse" gradientTransform="translate(1375.22 -335.931) scale(854.765 3782.99)">
<stop offset="0.04"/>
<stop offset="0.17" stop-color="#070707"/>
<stop offset="0.37" stop-color="#1B1B1B"/>
<stop offset="0.61" stop-color="#3C3C3C"/>
<stop offset="0.88" stop-color="#696969"/>
<stop offset="1" stop-color="#808080"/>
</radialGradient>
<radialGradient id="paint34_radial_1481_3" cx="0" cy="0" r="1" gradientUnits="userSpaceOnUse" gradientTransform="translate(1364.99 -274.364) scale(975.83 2441.52)">
<stop offset="0.04"/>
<stop offset="0.17" stop-color="#070707"/>
<stop offset="0.37" stop-color="#1B1B1B"/>
<stop offset="0.61" stop-color="#3C3C3C"/>
<stop offset="0.88" stop-color="#696969"/>
<stop offset="1" stop-color="#808080"/>
</radialGradient>
<radialGradient id="paint35_radial_1481_3" cx="0" cy="0" r="1" gradientUnits="userSpaceOnUse" gradientTransform="translate(1348.9 -252.058) scale(1165.88 1945.88)">
<stop offset="0.04"/>
<stop offset="0.17" stop-color="#070707"/>
<stop offset="0.37" stop-color="#1B1B1B"/>
<stop offset="0.61" stop-color="#3C3C3C"/>
<stop offset="0.88" stop-color="#696969"/>
<stop offset="1" stop-color="#808080"/>
</radialGradient>
<radialGradient id="paint36_radial_1481_3" cx="0" cy="0" r="1" gradientUnits="userSpaceOnUse" gradientTransform="translate(1044.49 788.903) scale(543.214 543.214)">
<stop offset="0.04"/>
<stop offset="0.17" stop-color="#070707"/>
<stop offset="0.37" stop-color="#1B1B1B"/>
<stop offset="0.61" stop-color="#3C3C3C"/>
<stop offset="0.88" stop-color="#696969"/>
<stop offset="1" stop-color="#808080"/>
</radialGradient>
</defs>
</svg>
